<?xml version="1.0" encoding="UTF-8"?>
<svg width="24px" height="24px" viewBox="0 0 24 24" version="1.1" xmlns="http://www.w3.org/2000/svg" xmlns:xlink="http://www.w3.org/1999/xlink">
    <title>account_p</title>
    <g id="account_p" stroke="none" stroke-width="1" fill="none" fill-rule="evenodd" stroke-linecap="round">
        <g id="编组-2" transform="translate(4.000000, 2.000000)" stroke="#FFFFFF" stroke-width="1.6">
            <circle id="椭圆形" cx="8" cy="5.5" r="5"></circle>
            <path d="M0.5,15.9973461 C0.498744866,15.6635345 0.573126545,15.3338039 0.717534268,15.0330978 C1.17069728,14.1234295 2.44861697,13.6413053 3.50901842,13.4229849 C4.27377896,13.2591828 5.04910283,13.1497508 5.82921303,13.0955043 C7.2735328,12.9681652 8.72619492,12.9681652 10.1705147,13.0955043 C10.9505595,13.1503755 11.7258399,13.2598013 12.4907093,13.4229849 C13.5511107,13.6413053 14.8290304,14.0779461 15.2821934,15.0330978 C15.5726022,15.6460759 15.5726022,16.357713 15.2821934,16.9706912 C14.8290304,17.9258429 13.5511107,18.3624837 12.4907093,18.5717074 C11.7268428,18.742293 10.9512444,18.8548046 10.1705147,18.9082846 C8.99495664,19.0083082 7.81391051,19.0265451 6.63584319,18.9628647 C6.36394539,18.9628647 6.10111084,18.9628647 5.82921303,18.9082846 C5.0514059,18.8554636 4.27877031,18.7429423 3.51808168,18.5717074 C2.44861697,18.3624837 1.17976054,17.9258429 0.717534268,16.9706912 C0.573864299,16.6664977 0.499556459,16.3339869 0.5,15.9973461 Z" id="Path_33945"></path>
        </g>
    </g>
</svg>