<?xml version="1.0" encoding="UTF-8"?>
<svg width="32px" height="32px" viewBox="0 0 32 32" version="1.1" xmlns="http://www.w3.org/2000/svg" xmlns:xlink="http://www.w3.org/1999/xlink">
    <title>bitcoin_L</title>
    <g id="Overview" stroke="none" stroke-width="1" fill="none" fill-rule="evenodd">
        <g id="Overview-1" transform="translate(-464.000000, -382.000000)">
            <g id="编组-8" transform="translate(440.000000, 358.000000)">
                <g id="bitcoin_L" transform="translate(24.000000, 24.000000)">
                    <circle id="椭圆形" fill="#F7931A" cx="16" cy="16" r="16"></circle>
                    <path d="M21.5120067,12.5384615 C21.6417493,13.8509615 21.1696303,14.78125 20.0956495,15.3293269 C20.9389767,15.53125 21.5696701,15.9026442 21.9877297,16.4435096 C22.4057894,16.984375 22.5679677,17.7560096 22.4742647,18.7584135 C22.4238092,19.2704327 22.3066804,19.7211539 22.1228783,20.1105769 C21.9390762,20.5 21.7066207,20.8209135 21.4255116,21.0733173 C21.1444026,21.3257212 20.7948182,21.5366587 20.3767585,21.7061298 C19.9586989,21.875601 19.5208175,22 19.0631143,22.0793269 C18.6054111,22.1586539 18.0810345,22.2127404 17.4899847,22.2415865 L17.4899847,25 L15.824954,25 L15.824954,22.2848558 C15.24832,22.2848558 14.8086366,22.28125 14.5059038,22.2740385 L14.5059038,25 L12.8408732,25 L12.8408732,22.2415865 C12.7111305,22.2415865 12.5165165,22.2397837 12.2570312,22.2361779 C11.9975459,22.2325721 11.799328,22.2307692 11.6623775,22.2307692 L9.5,22.2307692 L9.83516851,20.2512019 L11.035288,20.2512019 C11.3956842,20.2512019 11.6047141,20.0673077 11.6623775,19.6995192 L11.6623775,15.3509615 L11.8353676,15.3509615 C11.7921201,15.34375 11.7344567,15.3401442 11.6623775,15.3401442 L11.6623775,12.2355769 C11.5686744,11.7451923 11.2479218,11.5 10.7001195,11.5 L9.5,11.5 L9.5,9.72596154 L11.7921201,9.73677885 C12.2534273,9.73677885 12.6030116,9.73317308 12.8408732,9.72596154 L12.8408732,7 L14.5059038,7 L14.5059038,9.671875 C15.0969536,9.65745192 15.536637,9.65024038 15.824954,9.65024038 L15.824954,7 L17.4899847,7 L17.4899847,9.72596154 C18.0594107,9.77644231 18.5639655,9.85757212 19.0036489,9.96935096 C19.4433323,10.0811298 19.85058,10.2433894 20.2253921,10.4561298 C20.6002042,10.6688702 20.8975311,10.9501202 21.1173728,11.2998798 C21.3372145,11.6496394 21.4687592,12.0625 21.5120067,12.5384615 Z M19.1874509,18.4338942 C19.1874509,18.1742788 19.1333915,17.9435096 19.0252726,17.7415865 C18.9171538,17.5396635 18.7838072,17.3737981 18.6252328,17.2439904 C18.4666585,17.1141827 18.2594306,17.0042067 18.0035493,16.9140625 C17.747668,16.8239183 17.5116084,16.7572116 17.2953707,16.7139423 C17.0791329,16.670673 16.8124397,16.6382211 16.495291,16.6165865 C16.1781424,16.594952 15.929469,16.5841346 15.7492708,16.5841346 C15.5690727,16.5841346 15.3366171,16.5877403 15.0519041,16.5949519 C14.7671911,16.6021635 14.5960029,16.6057693 14.5383395,16.6057692 L14.5383395,20.2620192 C14.5960029,20.2620192 14.7293495,20.2638221 14.9383793,20.2674279 C15.1474091,20.2710337 15.3203993,20.2728365 15.4573499,20.2728365 C15.5943004,20.2728365 15.7853104,20.2674279 16.0303799,20.2566106 C16.2754493,20.2457933 16.4862811,20.2313702 16.6628753,20.2133413 C16.8394695,20.1953125 17.0448953,20.1646635 17.2791528,20.1213942 C17.5134104,20.078125 17.7134303,20.0276442 17.8792126,19.9699519 C18.0449949,19.9122596 18.2161831,19.8365385 18.3927772,19.7427885 C18.5693714,19.6490384 18.7117279,19.5408654 18.8198468,19.4182692 C18.9279657,19.2956731 19.0162628,19.1514423 19.084738,18.9855769 C19.1532133,18.8197115 19.1874509,18.6358173 19.1874509,18.4338942 L19.1874509,18.4338942 Z M18.419807,13.2848558 C18.419807,13.046875 18.3747574,12.8359375 18.2846584,12.6520433 C18.1945593,12.4681491 18.0846385,12.3167067 17.9548958,12.1977164 C17.8251532,12.078726 17.652163,11.9777644 17.4359252,11.8948317 C17.2196875,11.8118991 17.0214696,11.7524039 16.8412714,11.7163462 C16.6610733,11.6802884 16.4394296,11.6514423 16.1763404,11.6298077 C15.9132511,11.6081731 15.7042213,11.5991587 15.5492509,11.6027644 C15.3942805,11.6063702 15.1996665,11.6099759 14.965409,11.6135817 C14.7311515,11.6171875 14.5887949,11.6189904 14.5383395,11.6189904 L14.5383395,14.9399039 C14.5743791,14.9399039 14.6987158,14.9417067 14.9113496,14.9453125 C15.1239833,14.9489183 15.2915676,14.9489183 15.4141023,14.9453125 C15.5366371,14.9417067 15.7168352,14.9344952 15.9546967,14.9236779 C16.1925582,14.9128606 16.3907761,14.8930289 16.5493505,14.8641827 C16.7079248,14.8353366 16.8935289,14.7956731 17.1061627,14.7451923 C17.3187964,14.6947115 17.4935886,14.6280048 17.6305392,14.5450721 C17.7674898,14.4621394 17.9008364,14.3647837 18.030579,14.2530048 C18.1603216,14.1412259 18.2576286,14.0024038 18.3225,13.8365385 C18.3873714,13.6706731 18.419807,13.4867789 18.419807,13.2848558 L18.419807,13.2848558 Z" id="形状" fill="#FFFFFF" fill-rule="nonzero"></path>
                </g>
            </g>
        </g>
    </g>
</svg>