<?xml version="1.0" encoding="UTF-8"?>
<svg width="32px" height="32px" viewBox="0 0 32 32" version="1.1" xmlns="http://www.w3.org/2000/svg" xmlns:xlink="http://www.w3.org/1999/xlink">
    <title>DOL_32px</title>
    <defs>
        <linearGradient x1="100%" y1="50%" x2="0%" y2="50%" id="linearGradient-1">
            <stop stop-color="#02EBC8" offset="0%"></stop>
            <stop stop-color="#00B0F6" offset="100%"></stop>
        </linearGradient>
    </defs>
    <g id="页面-2" stroke="none" stroke-width="1" fill="none" fill-rule="evenodd">
        <g id="画板备份" transform="translate(-284.000000, -264.000000)" fill-rule="nonzero">
            <g id="DOL_32px" transform="translate(284.000000, 264.000000)">
                <circle id="椭圆形" fill="url(#linearGradient-1)" cx="16" cy="16" r="16"></circle>
                <path d="M17.4768,8 L17.4768,13.2363636 L15.584,13.2363636 L15.584,10.036 L11.7984,10.0363636 L11.7984,24 L9.76,24 L9.76,8 L17.4768,8 Z M13.6912,24 L13.6912,18.7636364 L15.584,18.7636364 L15.584,21.963 L16.312,21.9636364 C19.608919,21.9636364 22.2816,19.2936254 22.2816,16 C22.2816,13.8230154 21.1139587,11.9184755 19.3701933,10.8773067 L19.3697716,8.60390311 C22.2754872,9.80413907 24.32,12.6635473 24.32,16 C24.32,20.418278 20.7346963,24 16.312,24 L13.6912,24 Z" id="形状结合" fill="#FFFFFF"></path>
            </g>
        </g>
    </g>
</svg>