<?xml version="1.0" encoding="UTF-8"?>
<svg width="26px" height="26px" viewBox="0 0 26 26" version="1.1" xmlns="http://www.w3.org/2000/svg" xmlns:xlink="http://www.w3.org/1999/xlink">
    <title>Exchanging</title>
    <defs>
        <linearGradient x1="50%" y1="100%" x2="50%" y2="3.061617e-15%" id="linearGradient-1">
            <stop stop-color="#00C4FF" offset="0%"></stop>
            <stop stop-color="#0091FF" offset="100%"></stop>
        </linearGradient>
    </defs>
    <g id="Mining" stroke="none" stroke-width="1" fill="none" fill-rule="evenodd">
        <g id="Mining-1" transform="translate(-544.000000, -550.000000)" fill="url(#linearGradient-1)">
            <g id="编组-8" transform="translate(520.000000, 530.000000)">
                <g id="Exchanging" transform="translate(24.000000, 20.000000)">
                    <path d="M13,0 C20.1797017,0 26,5.82029825 26,13 C26,20.1797017 20.1797017,26 13,26 C5.82029825,26 0,20.1797017 0,13 C0,5.82029825 5.82029825,0 13,0 Z M14.5081575,12.6600617 C14.2858977,12.6600617 14.1057349,12.8352673 14.1057349,13.0514115 L14.1057349,13.0514115 L14.1057349,14.9642612 C13.7030323,15.007667 12.5298129,15.0293954 10.5861117,15.0293954 C7.67055989,15.0293954 6.71795559,13.719956 6.5,13.4980266 C6.71575101,15.922898 8.07779408,17.1284085 10.5861117,17.1145411 L10.5861117,17.1145411 L14.1057349,17.1145411 L14.1057349,19.1086214 C14.1057346,19.1924703 14.133427,19.2741025 14.1847322,19.3414915 C14.3169717,19.5151998 14.5689758,19.5517655 14.7476164,19.4231475 L14.7476164,19.4231475 L19.0528035,16.323419 C19.087212,16.2986452 19.1173351,16.2686905 19.1420363,16.2346847 C19.2702692,16.0581519 19.22707,15.8139666 19.0455424,15.6892451 L19.0455424,15.6892451 L14.7403378,12.7317638 C14.6724205,12.6851095 14.5913097,12.6600617 14.5081575,12.6600617 Z M11.8152678,6.65850848 C11.6830283,6.48480022 11.4310242,6.44823454 11.2523836,6.5768525 L11.2523836,6.5768525 L6.9471965,9.67656402 C6.91278795,9.70133781 6.88266494,9.73129253 6.85796366,9.76529833 C6.72973082,9.94183111 6.77293001,10.1860164 6.9544576,10.3107378 L6.9544576,10.3107378 L11.2596622,13.2682192 C11.3275795,13.3148735 11.4086903,13.3399213 11.4918425,13.3399213 C11.7141023,13.3399213 11.8942651,13.1647157 11.8942651,12.9485715 L11.8942651,12.9485715 L11.8942651,11.0357218 C12.2969677,10.992316 13.4701871,10.9705876 15.4138883,10.9705876 C18.3294401,10.9705876 19.2820444,12.280027 19.5,12.5019563 C19.284249,10.077085 17.9222059,8.87157452 15.4138883,8.88544191 L15.4138883,8.88544191 L11.8942651,8.88544191 L11.8942651,6.89136161 C11.8942654,6.80751265 11.866573,6.72588051 11.8152678,6.65849147 Z" id="形状结合"></path>
                </g>
            </g>
        </g>
    </g>
</svg>