<?xml version="1.0" encoding="UTF-8"?>
<svg width="40px" height="40px" viewBox="0 0 40 40" version="1.1" xmlns="http://www.w3.org/2000/svg" xmlns:xlink="http://www.w3.org/1999/xlink">
    <title>HBTC</title>
    <defs>
        <linearGradient x1="50%" y1="0%" x2="50%" y2="100%" id="linearGradient-1">
            <stop stop-color="#A7CEFE" offset="0%"></stop>
            <stop stop-color="#2067FC" offset="100%"></stop>
        </linearGradient>
        <path d="M13.5,0 C12.9425773,12.263299 11.4529945,17.63492 10.2436684,21.2311071 C9.1321239,23.2367842 8.5,25.5445719 8.5,28 C8.5,28.1525298 8.50243926,28.30449 8.50728089,28.4558435 C8.50269386,28.6323123 8.5,28.813678 8.5,29 C8.5,33.6052658 10.8946489,37.6512315 14.5067016,39.9606518 C14.1743949,39.9870464 13.8387102,40 13.5,40 C6.32029825,40 -7.10542736e-15,34.1797017 -7.10542736e-15,27 C-7.10542736e-15,21.9912389 3.77805473,17.8565157 8,11 C9.82991208,8.0281896 11.8369541,3.77964973 13.5,0 Z M14.9012395,4.44377011 C16.6430748,8.03609873 18.640419,11.2299338 20.4555581,14.1492047 C17.6524841,14.5584391 15.1195546,15.7989847 13.1141249,17.6121004 C14.0392874,14.407754 14.6293442,10.1389985 14.8851315,4.80665827 L14.9012395,4.44377011 Z" id="path-2"></path>
        <linearGradient x1="50%" y1="0%" x2="50%" y2="100%" id="linearGradient-4">
            <stop stop-color="#A7CEFE" offset="0%"></stop>
            <stop stop-color="#1133E8" offset="100%"></stop>
        </linearGradient>
    </defs>
    <g id="HBTC" stroke="none" stroke-width="1" fill="none" fill-rule="evenodd">
        <g id="形状结合" transform="translate(2.500000, 0.000000)">
            <mask id="mask-3" fill="white">
                <use xlink:href="#path-2"></use>
            </mask>
            <use id="蒙版" fill="url(#linearGradient-1)" xlink:href="#path-2"></use>
            <path d="M14.4300911,1.42393017 C13.7358602,15.4749432 12.6228776,19.920754 11.987227,23.5645939 L11.931433,23.8900077 C11.922356,23.9439626 11.913392,23.9977968 11.904544,24.0515398 L11.852872,24.3731404 L11.804128,24.6939711 C11.796256,24.7474575 11.788512,24.8009709 11.780899,24.8545408 L11.736817,25.1768753 C11.7001028,25.4565727 11.6670758,25.7393818 11.6381547,26.0294269 C11.5468647,26.6737989 11.5,27.3314265 11.5,28 C11.5,28.129348 11.5017542,28.2582863 11.50524,28.3867924 C11.5017334,28.5836416 11.5,28.7886316 11.5,29 C11.5,34.8051546 15.305047,39.721593 20.557139,41.3913131 C19.1190708,42.0968792 17.5803546,42.5 16,42.5 C8.82029825,42.5 3,34.1797017 3,27 C3,21.9912389 6.77805473,17.8565157 11,11 C12.6030661,8.39659161 13.1909135,4.81337454 14.4300911,1.42393017 Z M15,0 C15.7323284,1.9528757 16.6103198,3.79505537 17.5671689,5.54179267 C16.4172736,3.94293771 15.4448099,2.29876149 14.7417494,0.610758718 L14.7589033,0.570245934 L15,0 Z" fill="url(#linearGradient-4)" mask="url(#mask-3)"></path>
        </g>
        <circle id="Oval" fill="#F7931A" fill-rule="nonzero" cx="25" cy="28" r="12"></circle>
        <path d="M30.3917144,26.5151385 C30.6269144,24.9429539 29.4298683,24.0977847 27.7930683,23.5339692 L28.3240221,21.4042462 L27.0276529,21.0811692 L26.5107299,23.1547692 C26.1699299,23.0698462 25.8198991,22.9897231 25.4720837,22.9103385 L25.9926991,20.8230769 L24.6970683,20.5 L24.1657452,22.6289846 C23.8836529,22.5647385 23.6067299,22.5012308 23.3379299,22.4344 L23.3394068,22.4277538 L21.5515913,21.9813538 L21.2067299,23.3659692 C21.2067299,23.3659692 22.168576,23.5864 22.1482683,23.6000615 C22.6733144,23.7311384 22.7682068,24.0785846 22.7523299,24.3540308 L22.1475299,26.7802461 C22.1837144,26.7894769 22.2306068,26.8027692 22.2822991,26.8234461 C22.2390991,26.8127384 22.1929452,26.8009231 22.1453144,26.7894769 L21.2975606,30.1882461 C21.2333144,30.3477539 21.0704837,30.5870154 20.7034683,30.4961846 C20.7163913,30.5150153 19.7611914,30.2609847 19.7611914,30.2609847 L19.1176222,31.7449231 L20.8046375,32.1654769 C21.1184837,32.2441231 21.4260529,32.3264616 21.7288221,32.404 L21.1923299,34.5580923 L22.4872221,34.8811692 L23.0185452,32.7499692 C23.3722683,32.8459692 23.7156529,32.9345846 24.0516529,33.0180308 L23.522176,35.1392616 L24.8185452,35.4623385 L25.3550375,33.3123077 C27.5656221,33.7306461 29.2278991,33.5619077 29.9275913,31.5625231 C30.4914068,29.9526769 29.8995299,29.0240615 28.7364529,28.4185231 C29.5834683,28.2232 30.2214991,27.6660308 30.3917144,26.5151385 L30.3917144,26.5151385 Z M27.4297452,30.6686153 C27.0291299,32.2784616 24.3186068,31.4081847 23.4398375,31.1899692 L24.1517144,28.3361846 C25.0304837,28.5555077 27.8484529,28.9897231 27.4297452,30.6686153 Z M27.8307299,26.4918769 C27.4651913,27.9562461 25.2091913,27.2122461 24.477376,27.0298461 L25.1227913,24.4415384 C25.8546068,24.6239384 28.2114068,24.9643692 27.8307299,26.4918769 Z" id="Shape" fill="#FFFFFF" fill-rule="nonzero"></path>
    </g>
</svg>