<?xml version="1.0" encoding="UTF-8"?>
<svg width="26px" height="26px" viewBox="0 0 26 26" version="1.1" xmlns="http://www.w3.org/2000/svg" xmlns:xlink="http://www.w3.org/1999/xlink">
    <title>Lending</title>
    <defs>
        <linearGradient x1="50%" y1="100%" x2="50%" y2="0.648509206%" id="linearGradient-1">
            <stop stop-color="#FF00EE" offset="0%"></stop>
            <stop stop-color="#DD399E" offset="100%"></stop>
        </linearGradient>
    </defs>
    <g id="Mining" stroke="none" stroke-width="1" fill="none" fill-rule="evenodd">
        <g id="Mining-1" transform="translate(-544.000000, -232.000000)" fill="url(#linearGradient-1)">
            <g id="编组-8" transform="translate(520.000000, 212.000000)">
                <g id="Lending" transform="translate(24.000000, 20.000000)">
                    <path d="M13,0 C20.1797017,0 26,5.82029825 26,13 C26,20.1797017 20.1797017,26 13,26 C5.82029825,26 0,20.1797017 0,13 C0,5.82029825 5.82029825,0 13,0 Z M12.4212669,13.0495819 L11.7353677,12.8930816 L11.7353677,12.8930816 L10.856205,12.6801541 L10.856205,12.6801541 L10.5761534,12.6178224 L10.5761534,12.6178224 L10.3263331,12.5716646 C9.89168568,12.5031402 9.5735217,12.5266552 9.17421162,12.6999381 L9.05237168,12.7549115 L9.05237168,12.7549115 L8.01449363,13.2604643 C7.94366605,13.2941922 7.8708501,13.328471 7.79614889,13.363106 L7.3261435,13.5736332 C6.75333518,13.8206011 6.09825492,14.0659441 5.39627256,14.2428845 C5.11933082,14.3127515 4.95014115,14.5882004 5.01315407,14.8633401 L5.13534514,15.3800896 C5.34582578,16.2432543 5.66994909,17.4383837 5.98985418,18.0985504 L6.04562061,18.2107703 L6.04562061,18.2107703 C6.12816752,18.3344286 6.26364528,18.4209894 6.42495832,18.4209894 L6.4957297,18.4124493 L6.4957297,18.4124493 L6.6083259,18.3829645 L7.30340699,18.2188649 L7.30340699,18.2188649 L7.73139325,18.1251117 C7.86468117,18.0982602 7.98673332,18.0767335 8.09196488,18.0633078 C8.29935612,18.0368758 8.69062691,18.0771034 9.17729335,18.1535252 L9.69248114,18.2408834 L9.69248114,18.2408834 L10.2516029,18.345601 L10.2516029,18.345601 L12.2706236,18.7510747 L12.2706236,18.7510747 L12.7841177,18.8501299 L12.7841177,18.8501299 L13.2333987,18.929309 C13.4387088,18.9628012 13.6125654,18.9863011 13.7439079,18.9960005 C14.4006206,19.0444978 15.1095158,18.6437676 15.7371373,18.2376787 L16.2764495,17.8827362 C16.4465033,17.7719295 16.6056392,17.6726248 16.7502539,17.5968068 L16.8465726,17.5451325 L16.8465726,17.5451325 L17.3545701,17.2530369 L17.3545701,17.2530369 L18.327783,16.6620277 L18.327783,16.6620277 L19.9969941,15.6148734 L19.9969941,15.6148734 L19.9999595,15.5339373 L19.9999595,15.5339373 L19.9954828,15.4458769 C19.9679097,15.1472132 19.7885001,14.5775348 18.7943927,14.7987286 C18.5395539,14.8553855 18.258219,14.9419966 17.9700032,15.0449458 L17.6220969,15.1754557 C17.5639805,15.1982239 17.5059027,15.2214277 17.4480205,15.2449583 L16.9365966,15.4626146 L16.9365966,15.4626146 L16.6140672,15.6088064 L16.6140672,15.6088064 L16.1767337,15.8166543 L16.1767337,15.8166543 L15.6345084,16.0889891 L15.6345084,16.0889891 L15.4276129,16.1979223 L15.4276129,16.1979223 L15.2032378,16.2565727 L15.2032378,16.2565727 L15.0079819,16.3004098 L15.0079819,16.3004098 L14.7672367,16.3467314 L14.7672367,16.3467314 L14.4908686,16.3894309 C14.0060509,16.4541859 13.4139153,16.4784058 12.9200141,16.3348739 L12.5103985,16.2113865 C11.8753668,16.0117833 11.1807432,15.7492113 10.8739849,15.4466981 C10.5239482,15.1016914 10.562386,14.7532842 10.8579166,14.7987286 L11.1407173,14.836097 L11.1407173,14.836097 L11.5344772,14.8785699 C11.6074736,14.8857814 11.6836857,14.8929862 11.7624097,14.9000744 L12.2592651,14.9403272 L12.2592651,14.9403272 L12.7826222,14.9725158 L12.7826222,14.9725158 L13.2986978,14.9913725 C13.7998717,15.0018074 14.2394488,14.9843434 14.4654057,14.9152766 C15.1056169,14.7195873 15.4644754,13.9739277 15.1869036,13.5160829 L14.7880983,13.4750795 L14.7880983,13.4750795 L14.3401242,13.4123946 L14.3401242,13.4123946 L13.8875029,13.3384101 L13.8875029,13.3384101 L13.3309883,13.236478 L13.3309883,13.236478 L12.6670569,13.1022518 C12.5871886,13.0853826 12.5052659,13.067835 12.4212669,13.0495819 Z M18.1394231,9.76923077 L11.5480769,9.76923077 C11.0382756,9.76923077 10.625,10.1825064 10.625,10.6923077 C10.625,11.1656946 10.9813448,11.5558528 11.4404267,11.6091744 L11.5480769,11.6153846 L18.1394231,11.6153846 C18.6492244,11.6153846 19.0625,11.202109 19.0625,10.6923077 C19.0625,10.2189208 18.7061552,9.82876262 18.2470733,9.77544098 L18.1394231,9.76923077 Z M18.1394231,7 L11.5480769,7 C11.0382756,7 10.625,7.41327562 10.625,7.92307692 C10.625,8.39646385 10.9813448,8.78662199 11.4404267,8.83994363 L11.5480769,8.84615385 L18.1394231,8.84615385 C18.6492244,8.84615385 19.0625,8.43287823 19.0625,7.92307692 C19.0625,7.44968999 18.7061552,7.05953185 18.2470733,7.00621021 L18.1394231,7 Z" id="形状"></path>
                </g>
            </g>
        </g>
    </g>
</svg>