<?xml version="1.0" encoding="UTF-8"?>
<svg width="610px" height="160px" viewBox="0 0 610 160" version="1.1" xmlns="http://www.w3.org/2000/svg" xmlns:xlink="http://www.w3.org/1999/xlink">
    <title>realDAO_logo_round_stack_whitetext</title>
    <defs>
        <rect id="path-1" x="0" y="0" width="15.2" height="80"></rect>
        <filter x="-157.9%" y="-30.0%" width="415.8%" height="160.0%" filterUnits="objectBoundingBox" id="filter-2">
            <feOffset dx="0" dy="0" in="SourceAlpha" result="shadowOffsetOuter1"></feOffset>
            <feGaussianBlur stdDeviation="8" in="shadowOffsetOuter1" result="shadowBlurOuter1"></feGaussianBlur>
            <feColorMatrix values="0 0 0 0 0.207167731   0 0 0 0 0.135156541   0 0 0 0 0.945282425  0 0 0 0.4 0" type="matrix" in="shadowBlurOuter1"></feColorMatrix>
        </filter>
    </defs>
    <g id="realDAO_logo_round_stack_whitetext" stroke="none" stroke-width="1" fill="none" fill-rule="evenodd">
        <g id="编组-2">
            <path d="M220.010038,115.042553 L220.010038,90.2446809 C220.010038,85.1382979 221.323136,81.2287234 223.949331,78.5159574 C226.575526,75.8031915 230.226577,74.4468085 234.902486,74.4468085 C235.735182,74.4468085 236.663958,74.5425532 237.688815,74.7340426 L237.688815,74.7340426 L237.688815,63.3404255 C228.977533,63.3404255 222.892447,66.0212766 219.433556,71.3829787 L219.433556,71.3829787 L219.433556,63.9148936 L208,63.9148936 L208,115.042553 L220.010038,115.042553 Z M271.509082,115.712766 C275.928776,115.712766 279.900096,115.010638 283.42304,113.606383 C286.945985,112.202128 289.860421,110.12766 292.166348,107.382979 L292.166348,107.382979 L285.728967,100.010638 C282.077916,103.712766 277.434034,105.56383 271.797323,105.56383 C267.377629,105.56383 263.678537,104.462766 260.700048,102.260638 C257.721558,100.058511 255.880019,97.0744681 255.17543,93.3085106 L255.17543,93.3085106 L295.433078,93.3085106 C295.561185,91.7765957 295.625239,90.5957447 295.625239,89.7659574 C295.625239,84.5319149 294.520315,79.9202128 292.310468,75.9308511 C290.100621,71.9414894 287.026052,68.8457447 283.086759,66.643617 C279.147467,64.4414894 274.679732,63.3404255 269.683556,63.3404255 C264.623327,63.3404255 260.075526,64.4574468 256.040153,66.6914894 C252.00478,68.9255319 248.850143,72.037234 246.576243,76.0265957 C244.302342,80.0159574 243.165392,84.5 243.165392,89.4787234 C243.165392,94.5212766 244.334369,99.037234 246.672323,103.026596 C249.010277,107.015957 252.325048,110.12766 256.616635,112.361702 C260.908222,114.595745 265.872371,115.712766 271.509082,115.712766 Z M284.191683,85.3617021 L255.07935,85.3617021 C255.655832,81.5957447 257.273184,78.5797872 259.931405,76.3138298 C262.589627,74.0478723 265.840344,72.9148936 269.683556,72.9148936 C273.590822,72.9148936 276.857553,74.0638298 279.483748,76.3617021 C282.109943,78.6595745 283.679254,81.6595745 284.191683,85.3617021 L284.191683,85.3617021 Z M321.1826,115.712766 C325.025813,115.712766 328.308556,115.12234 331.030832,113.941489 C333.753107,112.760638 335.85086,111.053191 337.324092,108.819149 L337.324092,108.819149 L337.324092,115.042553 L348.661568,115.042553 L348.661568,85.0744681 C348.661568,77.7978723 346.659895,72.356383 342.656549,68.75 C338.653203,65.143617 332.872371,63.3404255 325.314054,63.3404255 C321.08652,63.3404255 317.083174,63.8829787 313.304015,64.9680851 C309.524857,66.0531915 306.290153,67.6170213 303.599904,69.6595745 L303.599904,69.6595745 L308.307839,78.3723404 C310.229446,76.7765957 312.583413,75.5319149 315.369742,74.6382979 C318.156071,73.7446809 320.99044,73.2978723 323.872849,73.2978723 C328.100382,73.2978723 331.287046,74.2553191 333.432839,76.1702128 C335.578633,78.0851064 336.65153,80.8297872 336.65153,84.4042553 L336.65153,84.4042553 L336.65153,85.1702128 L323.392447,85.1702128 C316.026291,85.1702128 310.62978,86.5585106 307.202916,89.3351064 C303.776052,92.1117021 302.06262,95.7978723 302.06262,100.393617 C302.06262,103.329787 302.847275,105.962766 304.416587,108.292553 C305.985899,110.62234 308.211759,112.441489 311.094168,113.75 C313.976577,115.058511 317.339388,115.712766 321.1826,115.712766 Z M323.680688,107 C320.606119,107 318.204111,106.361702 316.474665,105.085106 C314.74522,103.808511 313.880497,102.085106 313.880497,99.9148936 C313.880497,95.3829787 317.339388,93.1170213 324.25717,93.1170213 L324.25717,93.1170213 L336.65153,93.1170213 L336.65153,99.0531915 C335.690727,101.606383 334.041348,103.569149 331.703394,104.941489 C329.36544,106.31383 326.691205,107 323.680688,107 Z M376.044455,115.042553 L376.044455,44 L364.034417,44 L364.034417,115.042553 L376.044455,115.042553 Z M422.355163,115.042553 C429.529159,115.042553 435.902486,113.654255 441.475143,110.87766 C447.047801,108.101064 451.371415,104.175532 454.445985,99.1010638 C457.520554,94.0265957 459.057839,88.1702128 459.057839,81.5319149 C459.057839,74.893617 457.520554,69.037234 454.445985,63.962766 C451.371415,58.8882979 447.047801,54.962766 441.475143,52.1861702 C435.902486,49.4095745 429.529159,48.0212766 422.355163,48.0212766 L422.355163,48.0212766 L392.954589,48.0212766 L392.954589,115.042553 L422.355163,115.042553 Z M421.778681,104.510638 L405.445029,104.510638 L405.445029,58.5531915 L421.778681,58.5531915 C426.710803,58.5531915 431.05043,59.4946809 434.797562,61.3776596 C438.544694,63.2606383 441.427103,65.9414894 443.44479,69.4202128 C445.462476,72.8989362 446.471319,76.9361702 446.471319,81.5319149 C446.471319,86.1276596 445.462476,90.1648936 443.44479,93.643617 C441.427103,97.1223404 438.544694,99.8031915 434.797562,101.68617 C431.05043,103.569149 426.710803,104.510638 421.778681,104.510638 L421.778681,104.510638 Z M474.718929,115.042553 L481.34847,99.5319149 L514.976577,99.5319149 L521.702199,115.042553 L534.76912,115.042553 L504.407744,48.0212766 L492.109465,48.0212766 L461.844168,115.042553 L474.718929,115.042553 Z M510.845124,89.7659574 L485.576004,89.7659574 L498.162524,60.4680851 L510.845124,89.7659574 Z M573.777725,116 C580.631453,116 586.81262,114.515957 592.321224,111.547872 C597.829828,108.579787 602.153442,104.478723 605.292065,99.2446809 C608.430688,94.0106383 610,88.106383 610,81.5319149 C610,74.9574468 608.430688,69.0531915 605.292065,63.8191489 C602.153442,58.5851064 597.829828,54.4840426 592.321224,51.5159574 C586.81262,48.5478723 580.631453,47.0638298 573.777725,47.0638298 C566.923996,47.0638298 560.74283,48.5478723 555.234226,51.5159574 C549.725621,54.4840426 545.402008,58.6010638 542.263384,63.8670213 C539.124761,69.1329787 537.555449,75.0212766 537.555449,81.5319149 C537.555449,88.0425532 539.124761,93.9308511 542.263384,99.1968085 C545.402008,104.462766 549.725621,108.579787 555.234226,111.547872 C560.74283,114.515957 566.923996,116 573.777725,116 Z M573.777725,105.085106 C569.293977,105.085106 565.258604,104.079787 561.671606,102.069149 C558.084608,100.058511 555.266252,97.25 553.216539,93.643617 C551.166826,90.037234 550.141969,86 550.141969,81.5319149 C550.141969,77.0638298 551.166826,73.0265957 553.216539,69.4202128 C555.266252,65.8138298 558.084608,63.0053191 561.671606,60.9946809 C565.258604,58.9840426 569.293977,57.9787234 573.777725,57.9787234 C578.261472,57.9787234 582.296845,58.9840426 585.883843,60.9946809 C589.470841,63.0053191 592.289197,65.8138298 594.33891,69.4202128 C596.388623,73.0265957 597.41348,77.0638298 597.41348,81.5319149 C597.41348,86 596.388623,90.037234 594.33891,93.643617 C592.289197,97.25 589.470841,100.058511 585.883843,102.069149 C582.296845,104.079787 578.261472,105.085106 573.777725,105.085106 Z" id="realDAO" fill="#FFFFFF" fill-rule="nonzero"></path>
            <g id="编组-5">
                <circle id="椭圆形" fill="#5B4BFF" fill-rule="nonzero" cx="80" cy="80" r="80"></circle>
                <g id="编组" transform="translate(44.800000, 40.000000)">
                    <path d="M0,0 L42.6415094,0 C63.2740341,0 80,16.6474347 80,37.1830861 C80,50.7840377 72.6630961,62.6794094 61.7136373,69.1623384 C63.8699668,72.2954981 65.2514221,75.9998684 65.5829264,80.0005374 L50.3283789,80.0003986 C49.5222663,76.8823756 46.7553283,74.5477497 43.4138345,74.3762818 L43.1488639,74.3672641 L43.0188679,74.3661722 L15.0943396,74.3661722 L15.094,79.9997031 L0,79.9999732 L0,0 Z M42.6415094,15.0234691 L15.0943396,15.0234691 L15.0943396,59.3427031 L42.6415094,59.3427031 C54.9376605,59.3427031 64.9056604,49.4215046 64.9056604,37.1830861 C64.9056604,25.0670518 55.1360237,15.2221248 43.0096879,15.0264379 L42.6415094,15.0234691 Z" id="形状结合" fill="#FFFFFF" fill-rule="nonzero"></path>
                    <g id="矩形">
                        <use fill="black" fill-opacity="1" filter="url(#filter-2)" xlink:href="#path-1"></use>
                        <use fill="#FFFFFF" fill-rule="evenodd" xlink:href="#path-1"></use>
                    </g>
                </g>
            </g>
        </g>
    </g>
</svg>