<?xml version="1.0" encoding="UTF-8"?>
<svg width="20px" height="20px" viewBox="0 0 20 20" version="1.1" xmlns="http://www.w3.org/2000/svg" xmlns:xlink="http://www.w3.org/1999/xlink">
    <title>Metamask</title>
    <g id="控件" stroke="none" stroke-width="1" fill="none" fill-rule="evenodd">
        <g id="tool-bar/0" transform="translate(-1027.000000, -30.000000)">
            <g id="编组-7" transform="translate(1013.000000, 24.000000)">
                <g id="Metamask" transform="translate(14.000000, 6.000000)">
                    <rect id="矩形" x="0" y="0" width="20" height="20"></rect>
                    <g id="mm-logo" transform="translate(0.625000, 1.250000)" fill-rule="nonzero" stroke-linecap="round" stroke-linejoin="round" stroke-width="0.5">
                        <polygon id="路径" stroke="#E17726" fill="#E17726" points="17.6240625 0 10.3809926 5.35935662 11.7279044 2.2009136"></polygon>
                        <polygon id="路径" stroke="#E27625" fill="#E27625" points="0.917007353 0 8.09558824 5.409375 6.81319853 2.20090809"></polygon>
                        <polygon id="路径" stroke="#E27625" fill="#E27625" points="15.0161029 12.4265074 13.0889338 15.3705882 17.2155331 16.5067831 18.3976654 12.490864"></polygon>
                        <polygon id="路径" stroke="#E27625" fill="#E27625" points="0.150391544 12.490864 1.32532169 16.5067831 5.44477941 15.3705882 3.52474632 12.4265074"></polygon>
                        <polygon id="路径" stroke="#E27625" fill="#E27625" points="5.22264706 7.45306985 4.07638787 9.18237132 8.16 9.36816176 8.02389706 4.97349265"></polygon>
                        <polygon id="路径" stroke="#E27625" fill="#E27625" points="13.3181801 7.453125 10.4740257 4.92351838 10.3808824 9.36821691 14.4644669 9.18242647"></polygon>
                        <polygon id="路径" stroke="#E27625" fill="#E27625" points="5.44483456 15.3705882 7.91647059 14.177261 5.78873162 12.5194301"></polygon>
                        <polygon id="路径" stroke="#E27625" fill="#E27625" points="10.6245772 14.177261 13.0890441 15.3705882 12.7523162 12.5194301"></polygon>
                        <polygon id="路径" stroke="#D5BFB2" fill="#D5BFB2" points="13.0890441 15.3706985 10.6245772 14.1773713 10.8251471 15.7780147 10.8036397 16.456875"></polygon>
                        <polygon id="路径" stroke="#D5BFB2" fill="#D5BFB2" points="5.44483456 15.3706985 7.73740809 16.456875 7.72306985 15.7780147 7.91647059 14.1773713"></polygon>
                        <polygon id="路径" stroke="#233447" fill="#233447" points="7.7803125 11.461875 5.73132353 10.8616544 7.17849265 10.1970772"></polygon>
                        <polygon id="路径" stroke="#233447" fill="#233447" points="10.7606801 11.461875 11.3625 10.1970772 12.8168382 10.8616544"></polygon>
                        <polygon id="路径" stroke="#CC6228" fill="#CC6228" points="5.44477941 15.3705882 5.80301471 12.4265074 3.52477941 12.490864"></polygon>
                        <polygon id="路径" stroke="#CC6228" fill="#CC6228" points="12.7379228 12.4265074 13.088989 15.3705882 15.0161581 12.490864"></polygon>
                        <polygon id="路径" stroke="#CC6228" fill="#CC6228" points="14.4644669 9.18231618 10.3808824 9.36810662 10.7605699 11.461875 11.3623897 10.1970221 12.8167279 10.8615993"></polygon>
                        <polygon id="路径" stroke="#CC6228" fill="#CC6228" points="5.73132353 10.8615993 7.17849265 10.1970221 7.7803125 11.461875 8.16 9.36810662 4.07638787 9.18231618"></polygon>
                        <polygon id="路径" stroke="#E27525" fill="#E27525" points="4.07652022 9.18231618 5.78878676 12.5194301 5.73143382 10.8615993"></polygon>
                        <polygon id="路径" stroke="#E27525" fill="#E27525" points="12.8168382 10.8615993 12.7523713 12.5194301 14.4646324 9.18231618"></polygon>
                        <polygon id="路径" stroke="#E27525" fill="#E27525" points="8.16022059 9.36810662 7.78047794 11.461875 8.26047794 13.9342831 8.36795956 10.6758088"></polygon>
                        <polygon id="路径" stroke="#E27525" fill="#E27525" points="10.3809926 9.36810662 10.1803676 10.6686949 10.2806801 13.9342831 10.7606801 11.461875"></polygon>
                        <polygon id="路径" stroke="#F5841F" fill="#F5841F" points="10.7606801 11.4619301 10.2806801 13.9343382 10.6245772 14.1773162 12.7523713 12.5194853 12.8168382 10.8616544"></polygon>
                        <polygon id="路径" stroke="#F5841F" fill="#F5841F" points="5.73132353 10.8616544 5.78867647 12.5194853 7.91641544 14.1773162 8.2603125 13.9343382 7.7803125 11.4619301"></polygon>
                        <polygon id="路径" stroke="#C0AC9D" fill="#C0AC9D" points="10.8036949 16.4568199 10.8251471 15.7779596 10.6389154 15.6207353 7.9021875 15.6207353 7.72306985 15.7779596 7.73740809 16.4568199 5.44483456 15.3706434 6.24722426 16.0280515 7.87351103 17.1499632 10.6603676 17.1499632 12.2938235 16.0280515 13.0890441 15.3706434"></polygon>
                        <polygon id="路径" stroke="#161616" fill="#161616" points="10.6245221 14.177261 10.280625 13.9343382 8.2603125 13.9343382 7.91647059 14.177261 7.72301471 15.7779596 7.90213235 15.6207353 10.6388603 15.6207353 10.8251471 15.7779596"></polygon>
                        <polygon id="路径" stroke="#763E1A" fill="#763E1A" points="17.9320588 5.70948529 18.5410478 2.75113787 17.6240074 0 10.6245772 5.18073529 13.3182904 7.45306985 17.1225 8.56069853 17.9607353 7.58172794 17.595386 7.31729779 18.1756434 6.78854779 17.731489 6.44553309 18.3118015 6.00248162"></polygon>
                        <polygon id="路径" stroke="#763E1A" fill="#763E1A" points="0 2.75113787 0.616125 5.70948529 0.22209375 6.00248162 0.809558824 6.44553309 0.365376838 6.78854779 0.945678309 7.31729779 0.580301471 7.58172794 1.41852022 8.56069853 5.22275735 7.45306985 7.91647059 5.18073529 0.917023897 0"></polygon>
                        <polygon id="路径" stroke="#F5841F" fill="#F5841F" points="17.1225551 8.56064338 13.3183456 7.45306985 14.4646324 9.18237132 12.7523713 12.5194301 15.0162684 12.490864 18.3977757 12.490864"></polygon>
                        <polygon id="路径" stroke="#F5841F" fill="#F5841F" points="5.22264706 7.45306985 1.41845956 8.56064338 0.150391544 12.490864 3.52474632 12.490864 5.78862132 12.5194301 4.07639338 9.18237132"></polygon>
                        <polygon id="路径" stroke="#F5841F" fill="#F5841F" points="10.3809375 9.36816176 10.6245221 5.18068015 11.7277941 2.20090257 6.81314338 2.20090257 7.91641544 5.18068015 8.16 9.36816176 8.25314338 10.6829779 8.2603125 13.9343382 10.280625 13.9343382 10.2877941 10.6829779"></polygon>
                    </g>
                </g>
            </g>
        </g>
    </g>
</svg>