<?xml version="1.0" encoding="UTF-8"?>
<svg width="24px" height="24px" viewBox="0 0 24 24" version="1.1" xmlns="http://www.w3.org/2000/svg" xmlns:xlink="http://www.w3.org/1999/xlink">
    <title>mining</title>
    <g id="mining" stroke="none" stroke-width="1" fill="none" fill-rule="evenodd" stroke-linejoin="round">
        <g id="编组-10" transform="translate(13.142136, 13.142136) rotate(-40.000000) translate(-13.142136, -13.142136) translate(3.142136, 3.142136)" stroke="#808191" stroke-width="1.6">
            <path d="M9.99948228,2.45786438 C14.5320704,2.45786438 18.4106326,4.94143838 19.999576,8.45794338 C17.0112897,7.06591837 13.6090816,6.27837842 9.99948228,6.27837842 C6.39013503,6.27837842 2.98815006,7.06580837 2.30926389e-14,8.45754321 C1.58833193,4.94143838 5.46689416,2.45786438 9.99948228,2.45786438 Z" id="路径"></path>
            <path d="M8.5,2 L8.5,1 C8.5,0.44771525 8.94771525,0 9.5,0 L10.5,0 C11.0522847,0 11.5,0.44771525 11.5,1 L11.5,2 L11.5,2 M11.5,6 L11.5,19 C11.5,19.5522847 11.0522847,20 10.5,20 L9.5,20 C8.94771525,20 8.5,19.5522847 8.5,19 L8.5,6 L8.5,6" id="形状"></path>
        </g>
    </g>
</svg>