<?xml version="1.0" encoding="UTF-8"?>
<svg width="68px" height="40px" viewBox="0 0 68 40" version="1.1" xmlns="http://www.w3.org/2000/svg" xmlns:xlink="http://www.w3.org/1999/xlink">
    <title>HUSD_DOL</title>
    <defs>
        <linearGradient x1="100%" y1="50%" x2="0%" y2="50%" id="linearGradient-1">
            <stop stop-color="#02EBC8" offset="0%"></stop>
            <stop stop-color="#00B0F6" offset="100%"></stop>
        </linearGradient>
    </defs>
    <g id="HUSD_DOL" stroke="none" stroke-width="1" fill="none" fill-rule="evenodd">
        <g id="DOL" transform="translate(28.000000, 0.000000)" fill-rule="nonzero">
            <circle id="椭圆形" fill="url(#linearGradient-1)" cx="20" cy="20" r="20"></circle>
            <path d="M21.846,10 L21.8460224,10.1050232 C21.8463537,10.1050714 21.8466849,10.1051196 21.8470161,10.1051679 L21.8465634,12.687397 L21.846,16.5454545 L19.48,16.5454545 L19.48,12.545 L14.748,12.5454545 L14.748,27.4545455 L14.748,27.454 L14.748,30 L12.2,30 L12.2,10 L21.846,10 Z M17.114,30 L17.114,23.4545455 L19.48,23.4545455 L19.479,27.454 L20.39,27.4545455 C24.5111488,27.4545455 27.852,24.1170318 27.852,20 C27.852,17.2787386 26.3924156,14.8980409 24.2126682,13.5965895 L24.2128742,10.7551514 C27.8446685,12.2556066 30.4,15.8296866 30.4,20 C30.4,25.5228475 25.9183703,30 20.39,30 L17.114,30 Z" id="形状结合" fill="#FFFFFF"></path>
        </g>
        <g id="编组">
            <circle id="椭圆形" fill="#005CFF" cx="20" cy="20" r="20"></circle>
            <path d="M14,9 L14,17 C14,18.6568542 15.3431458,20 17,20 L23,20 C24.6568542,20 26,21.3431458 26,23 L26,31 L26,31" id="路径-4" stroke="#FFFFFF" stroke-width="4"></path>
            <path d="M24,9 L28,9 L28,16.5 C25.790861,16.5 24,14.709139 24,12.5 L24,9 L24,9 Z" id="矩形" fill="#FFFFFF"></path>
            <path d="M12,23.5 L16,23.5 L16,31 C13.790861,31 12,29.209139 12,27 L12,23.5 L12,23.5 Z" id="矩形" fill="#FFFFFF" transform="translate(14.000000, 27.250000) scale(-1, -1) translate(-14.000000, -27.250000) "></path>
        </g>
    </g>
</svg>