<?xml version="1.0" encoding="UTF-8"?>
<svg width="68px" height="40px" viewBox="0 0 68 40" version="1.1" xmlns="http://www.w3.org/2000/svg" xmlns:xlink="http://www.w3.org/1999/xlink">
    <title>HUSD_RDS</title>
    <defs>
        <rect id="path-1" x="0" y="0" width="3.8" height="20"></rect>
        <filter x="-157.9%" y="-30.0%" width="415.8%" height="160.0%" filterUnits="objectBoundingBox" id="filter-2">
            <feOffset dx="0" dy="0" in="SourceAlpha" result="shadowOffsetOuter1"></feOffset>
            <feGaussianBlur stdDeviation="2" in="shadowOffsetOuter1" result="shadowBlurOuter1"></feGaussianBlur>
            <feColorMatrix values="0 0 0 0 0.207167731   0 0 0 0 0.135156541   0 0 0 0 0.945282425  0 0 0 0.4 0" type="matrix" in="shadowBlurOuter1"></feColorMatrix>
        </filter>
    </defs>
    <g id="HUSD_RDS" stroke="none" stroke-width="1" fill="none" fill-rule="evenodd">
        <g id="编组-5" transform="translate(28.000000, 0.000000)">
            <circle id="椭圆形" fill="#5B4BFF" fill-rule="nonzero" cx="20" cy="20" r="20"></circle>
            <g id="编组" transform="translate(11.200000, 10.000000)">
                <path d="M0,0 L10.6603774,0 C15.8185085,0 20,4.16185868 20,9.29577153 C20,12.6962799 18.1654822,15.6703255 15.427756,17.2909714 C15.967579,18.0740948 16.3128791,19.000116 16.3957368,20.0001973 L12.5819156,19.9994072 C12.3877877,19.2497173 11.7401968,18.6813294 10.9475813,18.6012336 L10.787216,18.591816 L3.77358491,18.5915431 L3.773,19.9996758 L0,19.9999933 L0,0 Z M10.6603774,3.75586728 L3.77358491,3.75586728 L3.77358491,14.8356758 L10.6603774,14.8356758 C13.7344151,14.8356758 16.2264151,12.3553762 16.2264151,9.29577153 C16.2264151,6.26676295 13.7840059,3.80553121 10.752422,3.75660947 L10.6603774,3.75586728 Z" id="形状结合" fill="#FFFFFF" fill-rule="nonzero"></path>
                <g id="矩形">
                    <use fill="black" fill-opacity="1" filter="url(#filter-2)" xlink:href="#path-1"></use>
                    <use fill="#FFFFFF" fill-rule="evenodd" xlink:href="#path-1"></use>
                </g>
            </g>
        </g>
        <g id="编组">
            <circle id="椭圆形" fill="#005CFF" cx="20" cy="20" r="20"></circle>
            <path d="M14,9 L14,17 C14,18.6568542 15.3431458,20 17,20 L23,20 C24.6568542,20 26,21.3431458 26,23 L26,31 L26,31" id="路径-4" stroke="#FFFFFF" stroke-width="4"></path>
            <path d="M24,9 L28,9 L28,16.5 C25.790861,16.5 24,14.709139 24,12.5 L24,9 L24,9 Z" id="矩形" fill="#FFFFFF"></path>
            <path d="M12,23.5 L16,23.5 L16,31 C13.790861,31 12,29.209139 12,27 L12,23.5 L12,23.5 Z" id="矩形" fill="#FFFFFF" transform="translate(14.000000, 27.250000) scale(-1, -1) translate(-14.000000, -27.250000) "></path>
        </g>
    </g>
</svg>