<?xml version="1.0" encoding="UTF-8"?>
<svg width="68px" height="40px" viewBox="0 0 68 40" version="1.1" xmlns="http://www.w3.org/2000/svg" xmlns:xlink="http://www.w3.org/1999/xlink">
    <title>HT_RDS</title>
    <defs>
        <rect id="path-1" x="0" y="0" width="3.8" height="20"></rect>
        <filter x="-157.9%" y="-30.0%" width="415.8%" height="160.0%" filterUnits="objectBoundingBox" id="filter-2">
            <feOffset dx="0" dy="0" in="SourceAlpha" result="shadowOffsetOuter1"></feOffset>
            <feGaussianBlur stdDeviation="2" in="shadowOffsetOuter1" result="shadowBlurOuter1"></feGaussianBlur>
            <feColorMatrix values="0 0 0 0 0.207167731   0 0 0 0 0.135156541   0 0 0 0 0.945282425  0 0 0 0.4 0" type="matrix" in="shadowBlurOuter1"></feColorMatrix>
        </filter>
    </defs>
    <g id="HT_RDS" stroke="none" stroke-width="1" fill="none" fill-rule="evenodd">
        <g id="编组-5" transform="translate(28.000000, 0.000000)">
            <circle id="椭圆形" fill="#5B4BFF" fill-rule="nonzero" cx="20" cy="20" r="20"></circle>
            <g id="编组" transform="translate(11.200000, 10.000000)">
                <path d="M0,0 L10.6603774,0 C15.8185085,0 20,4.16185868 20,9.29577153 C20,12.6962799 18.1654822,15.6703255 15.427756,17.2909714 C15.967579,18.0740948 16.3128791,19.000116 16.3957368,20.0001973 L12.5819156,19.9994072 C12.3877877,19.2497173 11.7401968,18.6813294 10.9475813,18.6012336 L10.787216,18.591816 L3.77358491,18.5915431 L3.773,19.9996758 L0,19.9999933 L0,0 Z M10.6603774,3.75586728 L3.77358491,3.75586728 L3.77358491,14.8356758 L10.6603774,14.8356758 C13.7344151,14.8356758 16.2264151,12.3553762 16.2264151,9.29577153 C16.2264151,6.26676295 13.7840059,3.80553121 10.752422,3.75660947 L10.6603774,3.75586728 Z" id="形状结合" fill="#FFFFFF" fill-rule="nonzero"></path>
                <g id="矩形">
                    <use fill="black" fill-opacity="1" filter="url(#filter-2)" xlink:href="#path-1"></use>
                    <use fill="#FFFFFF" fill-rule="evenodd" xlink:href="#path-1"></use>
                </g>
            </g>
        </g>
        <g id="HT" fill-rule="nonzero">
            <circle id="Oval-5" fill="#F5F5F5" cx="20" cy="20" r="20"></circle>
            <g id="编组" transform="translate(8.888889, 2.222222)">
                <path d="M15.1532333,10.9037541 C15.1532333,5.81704018 12.6784111,1.44219385 10.7959444,0.0177021276 C10.7883889,0.0131631206 10.6520111,-0.0632434987 10.6633444,0.139877068 C10.6633444,0.142524823 10.6607,0.143659575 10.6607,0.146307328 C10.5043,9.96796218 5.49307778,12.6297116 2.73832222,16.2155272 C-3.61967778,24.4908936 2.2933,33.5636123 8.31394444,35.2403972 C11.6833444,36.1788369 7.5361,33.5802553 7.00192222,28.0918392 C6.3563,21.4584586 15.1532333,16.3951962 15.1532333,10.9037541" id="Fill-1" fill="#1D2243"></path>
                <path d="M18.0422511,14.2474516 C18.0037178,14.2213523 17.94894,14.2031962 17.9107844,14.2659858 C17.8076511,15.502487 16.5462511,18.1472151 14.9474956,20.5755839 C9.52487333,28.8131253 12.6150956,32.7836217 14.3524956,34.9165768 C15.3611622,36.154591 14.3524956,34.9165768 16.8741622,33.6513286 C17.0721178,33.5522269 21.7947178,30.8999338 22.3058511,24.8581371 C22.8014956,19.0069787 19.2915622,15.3190355 18.0422511,14.2474516" id="Fill-3" fill="#2EA7DF"></path>
            </g>
        </g>
    </g>
</svg>