<?xml version="1.0" encoding="UTF-8"?>
<svg width="20px" height="20px" viewBox="0 0 20 20" version="1.1" xmlns="http://www.w3.org/2000/svg" xmlns:xlink="http://www.w3.org/1999/xlink">
    <title>light</title>
    <g id="Propose" stroke="none" stroke-width="1" fill="none" fill-rule="evenodd">
        <g id="Propose-1" transform="translate(-20.000000, -982.000000)">
            <g id="light" transform="translate(20.000000, 982.000000)">
                <rect id="矩形" x="0" y="0" width="20" height="20"></rect>
                <g id="编组-2" transform="translate(1.000000, 1.000000)">
                    <circle id="椭圆形" fill="#FFCC40" cx="9" cy="9" r="5"></circle>
                    <line x1="9" y1="0" x2="9" y2="1" id="路径-9" stroke="#FFCC40" stroke-width="2" stroke-linecap="round"></line>
                    <line x1="15.0104076" y1="2.48959236" x2="15.0104076" y2="3.48959236" id="路径-9" stroke="#FFCC40" stroke-width="2" stroke-linecap="round" transform="translate(15.010408, 2.989592) rotate(45.000000) translate(-15.010408, -2.989592) "></line>
                    <line x1="17.5" y1="8.5" x2="17.5" y2="9.5" id="路径-9" stroke="#FFCC40" stroke-width="2" stroke-linecap="round" transform="translate(17.500000, 9.000000) rotate(90.000000) translate(-17.500000, -9.000000) "></line>
                    <line x1="15.0104076" y1="14.5104076" x2="15.0104076" y2="15.5104076" id="路径-9" stroke="#FFCC40" stroke-width="2" stroke-linecap="round" transform="translate(15.010408, 15.010408) rotate(135.000000) translate(-15.010408, -15.010408) "></line>
                    <line x1="9" y1="17" x2="9" y2="18" id="路径-9" stroke="#FFCC40" stroke-width="2" stroke-linecap="round" transform="translate(9.000000, 17.500000) rotate(180.000000) translate(-9.000000, -17.500000) "></line>
                    <line x1="2.98959236" y1="14.5104076" x2="2.98959236" y2="15.5104076" id="路径-9" stroke="#FFCC40" stroke-width="2" stroke-linecap="round" transform="translate(2.989592, 15.010408) rotate(225.000000) translate(-2.989592, -15.010408) "></line>
                    <line x1="0.5" y1="8.5" x2="0.5" y2="9.5" id="路径-9" stroke="#FFCC40" stroke-width="2" stroke-linecap="round" transform="translate(0.500000, 9.000000) rotate(270.000000) translate(-0.500000, -9.000000) "></line>
                    <line x1="2.98959236" y1="2.48959236" x2="2.98959236" y2="3.48959236" id="路径-9" stroke="#FFCC40" stroke-width="2" stroke-linecap="round" transform="translate(2.989592, 2.989592) rotate(315.000000) translate(-2.989592, -2.989592) "></line>
                </g>
            </g>
        </g>
    </g>
</svg>