<?xml version="1.0" encoding="UTF-8"?>
<svg width="39px" height="34px" viewBox="0 0 39 34" version="1.1" xmlns="http://www.w3.org/2000/svg" xmlns:xlink="http://www.w3.org/1999/xlink">
    <title>wallet</title>
    <g id="Account" stroke="none" stroke-width="1" fill="none" fill-rule="evenodd">
        <g id="Account-1" transform="translate(-821.000000, -420.000000)" fill="#95A9C9" fill-rule="nonzero">
            <g id="编组" transform="translate(718.000000, 420.000000)">
                <path d="M138.130469,7.28571429 L109.09375,7.28571429 C108.420391,7.28571429 107.875,6.74232143 107.875,6.07142857 C107.875,5.40053571 108.420391,4.85714286 109.09375,4.85714286 L138.34375,4.85714286 C139.017109,4.85714286 139.5625,4.31375 139.5625,3.64285714 C139.5625,1.6309375 137.925566,0 135.90625,0 L107.875,0 C105.182324,0 103,2.17433036 103,4.85714286 L103,29.1428571 C103,31.8256696 105.182324,34 107.875,34 L138.130469,34 C140.264805,34 142,32.3660268 142,30.3571429 L142,10.9285714 C142,8.9196875 140.264805,7.28571429 138.130469,7.28571429 Z M134.6875,23.0714286 C133.341543,23.0714286 132.25,21.9838839 132.25,20.6428571 C132.25,19.3018304 133.341543,18.2142857 134.6875,18.2142857 C136.033457,18.2142857 137.125,19.3018304 137.125,20.6428571 C137.125,21.9838839 136.033457,23.0714286 134.6875,23.0714286 Z" id="wallet"></path>
            </g>
        </g>
    </g>
</svg>