<?xml version="1.0" encoding="UTF-8"?>
<svg width="40px" height="40px" viewBox="0 0 40 40" version="1.1" xmlns="http://www.w3.org/2000/svg" xmlns:xlink="http://www.w3.org/1999/xlink">
    <title>HT</title>
    <g id="HT" stroke="none" stroke-width="1" fill="none" fill-rule="evenodd">
        <g id="20190724155918_25470" fill-rule="nonzero">
            <circle id="Oval-5" fill="#F5F5F5" cx="20" cy="20" r="20"></circle>
            <g id="编组" transform="translate(8.888889, 2.222222)">
                <path d="M15.1532333,10.9037541 C15.1532333,5.81704018 12.6784111,1.44219385 10.7959444,0.0177021276 C10.7883889,0.0131631206 10.6520111,-0.0632434987 10.6633444,0.139877068 C10.6633444,0.142524823 10.6607,0.143659575 10.6607,0.146307328 C10.5043,9.96796218 5.49307778,12.6297116 2.73832222,16.2155272 C-3.61967778,24.4908936 2.2933,33.5636123 8.31394444,35.2403972 C11.6833444,36.1788369 7.5361,33.5802553 7.00192222,28.0918392 C6.3563,21.4584586 15.1532333,16.3951962 15.1532333,10.9037541" id="Fill-1" fill="#1D2243"></path>
                <path d="M18.0422511,14.2474516 C18.0037178,14.2213523 17.94894,14.2031962 17.9107844,14.2659858 C17.8076511,15.502487 16.5462511,18.1472151 14.9474956,20.5755839 C9.52487333,28.8131253 12.6150956,32.7836217 14.3524956,34.9165768 C15.3611622,36.154591 14.3524956,34.9165768 16.8741622,33.6513286 C17.0721178,33.5522269 21.7947178,30.8999338 22.3058511,24.8581371 C22.8014956,19.0069787 19.2915622,15.3190355 18.0422511,14.2474516" id="Fill-3" fill="#2EA7DF"></path>
            </g>
        </g>
    </g>
</svg>